<svg width="49" height="39" viewBox="0 0 49 39" fill="none" xmlns="http://www.w3.org/2000/svg">
<path d="M0 35.7734C1.22396 34.276 2.46745 32.9284 3.73047 31.7305C4.99349 30.5195 6.21745 29.556 7.40234 28.8398C8.60026 28.1237 9.68099 27.7656 10.6445 27.7656C11.7122 27.7656 12.6172 28.0781 13.3594 28.7031C14.1016 29.3281 14.8633 30.2591 15.6445 31.4961C16.0352 32.0951 16.3997 32.5898 16.7383 32.9805C17.0898 33.3711 17.4935 33.6641 17.9492 33.8594C18.4049 34.0547 18.9974 34.1523 19.7266 34.1523L19.2969 38.1758C18.3333 38.1758 17.5456 38.0391 16.9336 37.7656C16.3346 37.4922 15.8073 37.0951 15.3516 36.5742C14.8958 36.0534 14.4206 35.4219 13.9258 34.6797C13.3268 33.7943 12.7604 33.0716 12.2266 32.5117C11.6927 31.9518 11.0091 31.6719 10.1758 31.6719C9.23828 31.6719 8.09896 32.2122 6.75781 33.293C5.42969 34.3737 3.89974 35.9427 2.16797 38L0 35.7734ZM19.2969 38.1758C19.1016 38.1758 18.9583 38.1172 18.8672 38C18.776 37.8828 18.737 37.7266 18.75 37.5312L19.0625 34.7969C19.1276 34.3672 19.349 34.1523 19.7266 34.1523C19.9219 34.1523 20.0651 34.2109 20.1562 34.3281C20.2604 34.4453 20.2995 34.6016 20.2734 34.7969L19.9609 37.5312C19.9219 37.9609 19.7005 38.1758 19.2969 38.1758ZM23.3789 11.4258C22.5846 11.4258 21.9727 11.1458 21.543 10.5859C21.1133 10.026 20.8984 9.17318 20.8984 8.02734C20.8984 7.74089 20.9115 7.45443 20.9375 7.16797C20.9766 6.86849 21.0221 6.59505 21.0742 6.34766H22.5586C22.5326 6.55599 22.5065 6.75781 22.4805 6.95312C22.4674 7.14844 22.4609 7.33724 22.4609 7.51953C22.4609 8.19661 22.5391 8.69141 22.6953 9.00391C22.8516 9.31641 23.1185 9.47266 23.4961 9.47266C23.9128 9.47266 24.2448 9.29688 24.4922 8.94531C24.7526 8.58073 24.8828 7.94271 24.8828 7.03125V5.70312H26.4453V6.97266C26.4453 7.58464 26.543 8.04688 26.7383 8.35938C26.9466 8.67188 27.2656 8.82812 27.6953 8.82812C28.0859 8.82812 28.3854 8.6849 28.5938 8.39844C28.8151 8.11198 28.9258 7.63021 28.9258 6.95312C28.9258 6.67969 28.8997 6.36719 28.8477 6.01562C28.7956 5.65104 28.7174 5.28646 28.6133 4.92188H30.1758C30.2799 5.29948 30.3581 5.69661 30.4102 6.11328C30.4622 6.51693 30.4883 6.88802 30.4883 7.22656C30.4883 8.48958 30.2344 9.40104 29.7266 9.96094C29.2318 10.5078 28.6003 10.7812 27.832 10.7812C27.2201 10.7812 26.7318 10.638 26.3672 10.3516C26.0026 10.0521 25.7487 9.6875 25.6055 9.25781H25.7812C25.6641 9.85677 25.4167 10.3711 25.0391 10.8008C24.6615 11.2174 24.1081 11.4258 23.3789 11.4258ZM24.9023 4.02344V0H26.4648V4.02344H24.9023ZM27.2656 14.3867V29.7773C27.2656 31.0013 27.4154 31.9323 27.7148 32.5703C28.0143 33.1953 28.4896 33.6185 29.1406 33.8398C29.7917 34.0482 30.638 34.1523 31.6797 34.1523L31.25 38.1758C30.0651 38.1758 29.0299 38.026 28.1445 37.7266C27.2721 37.4271 26.569 36.9258 26.0352 36.2227C25.5013 35.5195 25.1562 34.5755 25 33.3906L25.8203 33.4688C25.638 34.7318 25.2669 35.7083 24.707 36.3984C24.1602 37.0755 23.431 37.5443 22.5195 37.8047C21.6081 38.0521 20.5339 38.1758 19.2969 38.1758L19.7266 34.1523C20.7682 34.1523 21.6081 34.0482 22.2461 33.8398C22.8971 33.6185 23.3659 33.1953 23.6523 32.5703C23.9518 31.9323 24.1016 31.0013 24.1016 29.7773V14.3867H27.2656ZM31.25 38.1758C31.0547 38.1758 30.9049 38.1172 30.8008 38C30.7096 37.8828 30.6771 37.7266 30.7031 37.5312L31.0156 34.7969C31.0677 34.3672 31.2891 34.1523 31.6797 34.1523C31.875 34.1523 32.0182 34.2109 32.1094 34.3281C32.2005 34.4453 32.2396 34.6016 32.2266 34.7969L31.9141 37.5312C31.875 37.9609 31.6536 38.1758 31.25 38.1758ZM19.7266 34.1523C19.9219 34.1523 20.0651 34.2109 20.1562 34.3281C20.2604 34.4453 20.2995 34.6016 20.2734 34.7969L19.9609 37.5312C19.9089 37.9609 19.6875 38.1758 19.2969 38.1758C19.1016 38.1758 18.9583 38.1172 18.8672 38C18.776 37.8828 18.737 37.7266 18.75 37.5312L19.0625 34.7969C19.1016 34.3672 19.3229 34.1523 19.7266 34.1523ZM39.2188 9.89453V29.5039C39.2188 31.2747 39.0299 32.7656 38.6523 33.9766C38.2747 35.1745 37.6497 36.112 36.7773 36.7891C36.1784 37.2578 35.4232 37.6094 34.5117 37.8438C33.6133 38.0651 32.526 38.1758 31.25 38.1758L31.6797 34.1523C32.7734 34.1523 33.6393 34.0352 34.2773 33.8008C34.9154 33.5534 35.3711 33.1042 35.6445 32.4531C35.918 31.8021 36.0547 30.8646 36.0547 29.6406V9.89453H39.2188ZM31.25 38.1758C31.0547 38.1758 30.9115 38.1172 30.8203 38C30.7292 37.8828 30.6901 37.7266 30.7031 37.5312L31.0156 34.7969C31.0807 34.3672 31.3021 34.1523 31.6797 34.1523C31.875 34.1523 32.0182 34.2109 32.1094 34.3281C32.2135 34.4453 32.2526 34.6016 32.2266 34.7969L31.9141 37.5312C31.875 37.9609 31.6536 38.1758 31.25 38.1758ZM45.3711 9.89453H48.5352V38.1758H46.5625H45.3711V9.89453Z" fill="white"/>
</svg>
